<svg width="16" height="16" viewBox="0 0 16 16" fill="none" xmlns="http://www.w3.org/2000/svg">
<g id="mdi:gauge">
<path id="Vector" d="M7.99992 1.33334C7.12444 1.33334 6.25753 1.50577 5.4487 1.84081C4.63986 2.17584 3.90493 2.6669 3.28587 3.28596C2.03563 4.5362 1.33325 6.23189 1.33325 8C1.33325 9.76811 2.03563 11.4638 3.28587 12.714C3.90493 13.3331 4.63986 13.8242 5.4487 14.1592C6.25753 14.4942 7.12444 14.6667 7.99992 14.6667C9.76803 14.6667 11.4637 13.9643 12.714 12.714C13.9642 11.4638 14.6666 9.76811 14.6666 8C14.6666 7.12452 14.4941 6.25762 14.1591 5.44878C13.8241 4.63994 13.333 3.90501 12.714 3.28596C12.0949 2.6669 11.36 2.17584 10.5511 1.84081C9.7423 1.50577 8.8754 1.33334 7.99992 1.33334ZM7.99992 2.66667C9.41441 2.66667 10.771 3.22857 11.7712 4.22877C12.7713 5.22896 13.3333 6.58551 13.3333 8C13.3333 9.6 12.6666 11 11.5333 12C10.5999 11.1333 9.33325 10.6667 7.99992 10.6667C6.66659 10.6667 5.46659 11.1333 4.46659 12C3.33325 11 2.66659 9.6 2.66659 8C2.66659 6.58551 3.22849 5.22896 4.22868 4.22877C5.22888 3.22857 6.58543 2.66667 7.99992 2.66667ZM9.33325 3.92667C9.07992 3.93334 8.83992 4.1 8.73325 4.36L7.87325 6.51334L7.80659 6.66667C7.33325 6.75334 6.93992 7.06667 6.75992 7.50667C6.48659 8.19334 6.81992 8.96667 7.50659 9.24C8.19325 9.51334 8.96659 9.18 9.23992 8.49334C9.41325 8.05334 9.33325 7.54667 9.04659 7.17334L9.11325 7L9.97325 4.86L9.97992 4.84C10.1133 4.5 9.94659 4.11334 9.60659 3.97334C9.51992 3.94 9.43325 3.92667 9.33325 3.92667ZM6.66659 4C6.48977 4 6.32021 4.07024 6.19518 4.19526C6.07016 4.32029 5.99992 4.48986 5.99992 4.66667C5.99992 4.84348 6.07016 5.01305 6.19518 5.13807C6.32021 5.2631 6.48977 5.33334 6.66659 5.33334C6.8434 5.33334 7.01297 5.2631 7.13799 5.13807C7.26301 5.01305 7.33325 4.84348 7.33325 4.66667C7.33325 4.48986 7.26301 4.32029 7.13799 4.19526C7.01297 4.07024 6.8434 4 6.66659 4ZM4.66659 6C4.48977 6 4.32021 6.07024 4.19518 6.19526C4.07016 6.32029 3.99992 6.48986 3.99992 6.66667C3.99992 6.84348 4.07016 7.01305 4.19518 7.13807C4.32021 7.2631 4.48977 7.33334 4.66659 7.33334C4.8434 7.33334 5.01297 7.2631 5.13799 7.13807C5.26301 7.01305 5.33325 6.84348 5.33325 6.66667C5.33325 6.48986 5.26301 6.32029 5.13799 6.19526C5.01297 6.07024 4.8434 6 4.66659 6ZM11.3333 6C11.1564 6 10.9869 6.07024 10.8618 6.19526C10.7368 6.32029 10.6666 6.48986 10.6666 6.66667C10.6666 6.84348 10.7368 7.01305 10.8618 7.13807C10.9869 7.2631 11.1564 7.33334 11.3333 7.33334C11.5101 7.33334 11.6796 7.2631 11.8047 7.13807C11.9297 7.01305 11.9999 6.84348 11.9999 6.66667C11.9999 6.48986 11.9297 6.32029 11.8047 6.19526C11.6796 6.07024 11.5101 6 11.3333 6Z" fill="white" fill-opacity="0.9"/>
</g>
</svg>
