<svg width="16" height="16" viewBox="0 0 16 16" fill="none" xmlns="http://www.w3.org/2000/svg">
<g id="solar:wind-bold-duotone">
<g id="Group">
<path id="Vector" fill-rule="evenodd" clip-rule="evenodd" d="M4.16667 3.66667C4.16667 3.23814 4.29374 2.81924 4.53182 2.46293C4.76989 2.10663 5.10828 1.82892 5.50419 1.66493C5.90009 1.50094 6.33574 1.45803 6.75603 1.54163C7.17632 1.62523 7.56238 1.83159 7.8654 2.1346C8.16841 2.43762 8.37477 2.82368 8.45837 3.24397C8.54197 3.66426 8.49906 4.09991 8.33507 4.49582C8.17108 4.89172 7.89338 5.23011 7.53707 5.46819C7.18076 5.70626 6.76186 5.83333 6.33333 5.83333H2C1.86739 5.83333 1.74021 5.78066 1.64645 5.68689C1.55268 5.59312 1.5 5.46594 1.5 5.33333C1.5 5.20073 1.55268 5.07355 1.64645 4.97978C1.74021 4.88601 1.86739 4.83333 2 4.83333H6.33333C6.56408 4.83333 6.78964 4.76491 6.9815 4.63672C7.17336 4.50852 7.32289 4.32631 7.41119 4.11313C7.4995 3.89995 7.5226 3.66537 7.47758 3.43906C7.43257 3.21275 7.32145 3.00487 7.15829 2.84171C6.99513 2.67855 6.78725 2.56743 6.56094 2.52242C6.33463 2.4774 6.10005 2.50051 5.88687 2.58881C5.67369 2.67711 5.49148 2.82664 5.36329 3.0185C5.23509 3.21036 5.16667 3.43592 5.16667 3.66667V3.90467C5.16667 4.03728 5.11399 4.16445 5.02022 4.25822C4.92645 4.35199 4.79927 4.40467 4.66667 4.40467C4.53406 4.40467 4.40688 4.35199 4.31311 4.25822C4.21935 4.16445 4.16667 4.03728 4.16667 3.90467V3.66667Z" fill="white"/>
<path id="Vector_2" opacity="0.4" d="M2.1665 9.33333C2.1665 9.20072 2.21918 9.07354 2.31295 8.97978C2.40672 8.88601 2.5339 8.83333 2.6665 8.83333H12.3332C12.8936 8.83333 13.4413 8.9995 13.9073 9.31083C14.3732 9.62216 14.7364 10.0647 14.9508 10.5824C15.1653 11.1001 15.2214 11.6698 15.1121 12.2194C15.0027 12.769 14.7329 13.2739 14.3366 13.6701C13.9404 14.0664 13.4355 14.3362 12.8859 14.4456C12.3363 14.5549 11.7666 14.4988 11.2489 14.2843C10.7312 14.0699 10.2887 13.7067 9.97734 13.2408C9.66601 12.7748 9.49984 12.227 9.49984 11.6667V11.3333C9.49984 11.2007 9.55252 11.0735 9.64628 10.9798C9.74005 10.886 9.86723 10.8333 9.99984 10.8333C10.1324 10.8333 10.2596 10.886 10.3534 10.9798C10.4472 11.0735 10.4998 11.2007 10.4998 11.3333V11.6667C10.4998 12.0293 10.6074 12.3837 10.8088 12.6852C11.0103 12.9867 11.2966 13.2217 11.6316 13.3604C11.9666 13.4992 12.3352 13.5355 12.6908 13.4648C13.0465 13.394 13.3731 13.2194 13.6295 12.963C13.8859 12.7066 14.0605 12.38 14.1313 12.0243C14.202 11.6687 14.1657 11.3001 14.0269 10.9651C13.8882 10.6301 13.6532 10.3438 13.3517 10.1423C13.0502 9.94085 12.6958 9.83333 12.3332 9.83333H2.6665C2.5339 9.83333 2.40672 9.78065 2.31295 9.68688C2.21918 9.59311 2.1665 9.46594 2.1665 9.33333Z" fill="white"/>
<path id="Vector_3" opacity="0.7" d="M9.49992 5.00001C9.49992 4.43963 9.66609 3.89183 9.97742 3.42589C10.2888 2.95995 10.7313 2.5968 11.249 2.38235C11.7667 2.1679 12.3364 2.11179 12.886 2.22111C13.4356 2.33044 13.9405 2.60029 14.3367 2.99654C14.733 3.39279 15.0028 3.89764 15.1121 4.44725C15.2215 4.99686 15.1654 5.56655 14.9509 6.08428C14.7365 6.602 14.3733 7.04451 13.9074 7.35584C13.4414 7.66717 12.8936 7.83334 12.3333 7.83334H1.33325C1.20064 7.83334 1.07347 7.78066 0.979699 7.68689C0.88593 7.59312 0.833252 7.46595 0.833252 7.33334C0.833252 7.20073 0.88593 7.07355 0.979699 6.97979C1.07347 6.88602 1.20064 6.83334 1.33325 6.83334H12.3333C12.6959 6.83334 13.0503 6.72582 13.3518 6.52437C13.6533 6.32292 13.8883 6.03659 14.027 5.70159C14.1658 5.3666 14.2021 4.99797 14.1314 4.64234C14.0606 4.28671 13.886 3.96004 13.6296 3.70364C13.3732 3.44725 13.0465 3.27264 12.6909 3.2019C12.3353 3.13116 11.9667 3.16747 11.6317 3.30623C11.2967 3.44499 11.0103 3.67997 10.8089 3.98146C10.6074 4.28295 10.4999 4.63741 10.4999 5.00001V5.33334C10.4999 5.46595 10.4472 5.59312 10.3535 5.68689C10.2597 5.78066 10.1325 5.83334 9.99992 5.83334C9.86731 5.83334 9.74013 5.78066 9.64637 5.68689C9.5526 5.59312 9.49992 5.46595 9.49992 5.33334V5.00001Z" fill="white"/>
</g>
</g>
</svg>
