<svg width="16" height="16" viewBox="0 0 16 16" fill="none" xmlns="http://www.w3.org/2000/svg">
<g id="emojione:sun" clip-path="url(#clip0_13_18)">
<path id="Vector" d="M5.125 14.925L6.875 13.125C6.25 13 5.675 12.75 5.15 12.4L5.125 14.925ZM10.875 1.075L9.125 2.875C9.75 3 10.325 3.25 10.85 3.6L10.875 1.075ZM1.075 10.875L3.6 10.85C3.25 10.325 3 9.75 2.875 9.125L1.075 10.875ZM14.925 5.125L12.4 5.15C12.725 5.675 12.975 6.25 13.125 6.875L14.925 5.125ZM1.075 5.125L2.875 6.875C3 6.25 3.25 5.675 3.6 5.15L1.075 5.125ZM14.925 10.875L13.125 9.125C13 9.75 12.75 10.325 12.4 10.85L14.925 10.875ZM5.125 1.075L5.15 3.6C5.675 3.275 6.25 3.025 6.875 2.875L5.125 1.075ZM10.875 14.925L10.85 12.4C10.325 12.75 9.75 13 9.125 13.125L10.875 14.925Z" fill="#FFE62E"/>
<g id="Group">
<path id="Vector_2" d="M3.7 11L2.7 13.325L5.025 12.325C4.5 11.95 4.05 11.5 3.7 11ZM12.3 5L13.3 2.675L11 3.675C11.5 4.05 11.95 4.5 12.3 5ZM2.85 7.075L0.5 8L2.85 8.925C2.775 8.625 2.75 8.325 2.75 8C2.75 7.675 2.775 7.375 2.85 7.075ZM13.15 8.925L15.5 8L13.15 7.075C13.2 7.375 13.25 7.7 13.25 8C13.25 8.325 13.225 8.625 13.15 8.925ZM5 3.7L2.675 2.7L3.675 5.025C4.05 4.5 4.5 4.05 5 3.7ZM11 12.3L13.325 13.3L12.325 10.975C11.95 11.5 11.5 11.95 11 12.3ZM8.925 2.85L8 0.5L7.075 2.85C7.375 2.8 7.7 2.75 8 2.75C8.3 2.75 8.625 2.775 8.925 2.85ZM7.075 13.15L8 15.5L8.925 13.15C8.625 13.225 8.325 13.25 8 13.25C7.675 13.25 7.375 13.225 7.075 13.15Z" fill="#FFCE31"/>
<path id="Vector_3" d="M8 12.75C10.6234 12.75 12.75 10.6234 12.75 8C12.75 5.37665 10.6234 3.25 8 3.25C5.37665 3.25 3.25 5.37665 3.25 8C3.25 10.6234 5.37665 12.75 8 12.75Z" fill="#FFCE31"/>
</g>
</g>
<defs>
<clipPath id="clip0_13_18">
<rect width="16" height="16" fill="white"/>
</clipPath>
</defs>
</svg>
