<svg width="18" height="19" viewBox="0 0 18 19" fill="none" xmlns="http://www.w3.org/2000/svg">
<g id="gis:search-map" clip-path="url(#clip0_8_47)">
<path id="Vector" d="M6.52985 2.52643C5.32421 2.52643 4.33655 3.56592 4.33655 4.83493C4.33655 5.32665 4.48505 5.78379 4.73687 6.15942L6.26201 8.34328C6.47567 8.63778 6.61805 8.58192 6.79571 8.3277L8.47835 5.9052C8.51163 5.83981 8.53958 5.77154 8.56187 5.70114C8.66573 5.43324 8.72333 5.14064 8.72333 4.83493C8.72333 3.56592 7.73567 2.52643 6.52985 2.52643ZM6.52985 3.6081C7.17911 3.6081 7.69571 4.1515 7.69571 4.83493C7.69571 5.51836 7.17911 6.06233 6.52985 6.06233C5.88059 6.06233 5.36417 5.51836 5.36417 4.83493C5.36417 4.15169 5.88077 3.6081 6.52985 3.6081Z" fill="#FF0000"/>
<path id="Vector_2" d="M6.6922 0.0338211C4.9768 0.0338211 3.26122 0.722192 1.95658 2.09912C-0.652519 4.85337 -0.652519 9.34251 1.95658 12.0966C4.399 14.6745 8.27439 14.8261 10.9001 12.5767L11.5437 13.2563C11.5073 13.3945 11.4989 13.5274 11.5189 13.646C11.539 13.7645 11.5871 13.8658 11.66 13.9428L16.3312 18.8735C16.4647 19.0144 16.6727 19.0652 16.9093 19.0148C17.146 18.9643 17.3919 18.8167 17.593 18.6045C17.7941 18.3922 17.9339 18.1326 17.9817 17.8828C18.0295 17.633 17.9814 17.4135 17.8479 17.2726L13.1769 12.3419C13.1039 12.2648 13.0078 12.214 12.8955 12.1928C12.7831 12.1716 12.657 12.1806 12.526 12.2191L11.8823 11.5395C14.0133 8.76795 13.87 4.67724 11.4276 2.09931C10.1232 0.722002 8.40759 0.0338211 6.6922 0.0338211ZM6.6922 1.59505C8.02365 1.59505 9.35529 2.13351 10.3755 3.21025C10.8606 3.72 11.2454 4.32586 11.508 4.99303C11.7706 5.66021 11.9058 6.37556 11.9058 7.09803C11.9058 7.8205 11.7706 8.53586 11.508 9.20304C11.2454 9.87021 10.8606 10.4761 10.3755 10.9858C9.89261 11.4978 9.31864 11.904 8.68658 12.1812C8.05452 12.4584 7.37682 12.6011 6.69238 12.6011C6.00793 12.6011 5.33023 12.4584 4.69817 12.1812C4.06611 11.904 3.49214 11.4978 3.00922 10.9858C2.52419 10.4761 2.13933 9.87021 1.87672 9.20304C1.6141 8.53586 1.47892 7.8205 1.47892 7.09803C1.47892 6.37556 1.6141 5.66021 1.87672 4.99303C2.13933 4.32586 2.52419 3.72 3.00922 3.21025C4.02928 2.13351 5.36092 1.59505 6.6922 1.59505Z" fill="black" fill-opacity="0.57"/>
<path id="Vector_3" d="M5.35087 9.88057L3.49903 10.5222C4.28263 11.3216 5.30988 11.801 6.39739 11.8748L5.35087 9.88057ZM11.2486 7.83807L6.66289 9.42647L7.86979 11.7255C8.5186 11.5449 9.1223 11.2172 9.63883 10.7652C10.4908 10.025 11.0621 8.98607 11.2486 7.83807ZM2.10133 6.5322C2.0108 7.49498 2.19509 8.46434 2.63053 9.3157L4.34413 8.72233L2.10133 6.5322ZM10.8004 4.77774L9.84583 6.81682L11.2707 6.32358C11.1975 5.78403 11.0385 5.26141 10.8004 4.77774Z" fill="#20B726"/>
</g>
<defs>
<clipPath id="clip0_8_47">
<rect width="18" height="19" fill="white"/>
</clipPath>
</defs>
</svg>
