<svg width="14" height="14" viewBox="0 0 14 14" fill="none" xmlns="http://www.w3.org/2000/svg">
<g id="logos:telegram" clip-path="url(#clip0_21_17)">
<path id="Vector" d="M7 0C5.14391 0 3.36219 0.737953 2.05078 2.05023C0.738022 3.36304 0.000363639 5.14345 0 7C0 8.85577 0.738281 10.6375 2.05078 11.9498C3.36219 13.262 5.14391 14 7 14C8.85609 14 10.6378 13.262 11.9492 11.9498C13.2617 10.6375 14 8.85577 14 7C14 5.14423 13.2617 3.36252 11.9492 2.05023C10.6378 0.737953 8.85609 0 7 0Z" fill="url(#paint0_linear_21_17)"/>
<path id="Vector_2" d="M3.16859 6.92606C5.20952 6.03706 6.57015 5.45092 7.25046 5.16774C9.19515 4.35913 9.59874 4.2187 9.86234 4.21394C9.9203 4.21301 10.0494 4.22734 10.1336 4.29542C10.2036 4.35285 10.2233 4.4305 10.2331 4.48503C10.2419 4.53949 10.2539 4.66363 10.2441 4.76054C10.1391 5.86742 9.68296 8.55345 9.45109 9.79321C9.35374 10.3178 9.16015 10.4936 8.97312 10.5108C8.56624 10.5482 8.2578 10.2422 7.86405 9.98418C7.24827 9.58026 6.90046 9.32892 6.30218 8.93484C5.61093 8.4794 6.05937 8.22904 6.45312 7.81998C6.55593 7.7129 8.34749 6.08376 8.3814 5.93599C8.38577 5.91751 8.39015 5.8486 8.34859 5.81229C8.30812 5.77587 8.24796 5.78834 8.20421 5.79818C8.14187 5.81218 7.15859 6.46274 5.25109 7.74976C4.97218 7.9416 4.71952 8.03512 4.49202 8.0302C4.24265 8.02484 3.7614 7.88888 3.40374 7.77273C2.96624 7.63021 2.61734 7.55485 2.64796 7.31281C2.66327 7.18681 2.83718 7.05785 3.16859 6.92606Z" fill="white"/>
</g>
<defs>
<linearGradient id="paint0_linear_21_17" x1="700" y1="0" x2="700" y2="1400" gradientUnits="userSpaceOnUse">
<stop stop-color="#2AABEE"/>
<stop offset="1" stop-color="#229ED9"/>
</linearGradient>
<clipPath id="clip0_21_17">
<rect width="14" height="14" fill="white"/>
</clipPath>
</defs>
</svg>
