<svg width="16" height="16" viewBox="0 0 16 16" fill="none" xmlns="http://www.w3.org/2000/svg">
<g id="mdi:gauge">
<path id="Vector" d="M8 1.33334C7.12452 1.33334 6.25761 1.50577 5.44878 1.84081C4.63994 2.17584 3.90501 2.6669 3.28596 3.28596C2.03571 4.5362 1.33333 6.23189 1.33333 8C1.33333 9.76811 2.03571 11.4638 3.28596 12.714C3.90501 13.3331 4.63994 13.8242 5.44878 14.1592C6.25761 14.4942 7.12452 14.6667 8 14.6667C9.76811 14.6667 11.4638 13.9643 12.714 12.714C13.9643 11.4638 14.6667 9.76811 14.6667 8C14.6667 7.12452 14.4942 6.25762 14.1592 5.44878C13.8242 4.63994 13.3331 3.90501 12.714 3.28596C12.095 2.6669 11.3601 2.17584 10.5512 1.84081C9.74239 1.50577 8.87548 1.33334 8 1.33334ZM8 2.66667C9.41449 2.66667 10.771 3.22857 11.7712 4.22877C12.7714 5.22896 13.3333 6.58551 13.3333 8C13.3333 9.6 12.6667 11 11.5333 12C10.6 11.1333 9.33333 10.6667 8 10.6667C6.66667 10.6667 5.46667 11.1333 4.46667 12C3.33333 11 2.66667 9.6 2.66667 8C2.66667 6.58551 3.22857 5.22896 4.22876 4.22877C5.22896 3.22857 6.58551 2.66667 8 2.66667ZM9.33333 3.92667C9.08 3.93334 8.84 4.1 8.73333 4.36L7.87333 6.51334L7.80667 6.66667C7.33333 6.75334 6.94 7.06667 6.76 7.50667C6.48667 8.19334 6.82 8.96667 7.50667 9.24C8.19333 9.51334 8.96667 9.18 9.24 8.49334C9.41333 8.05334 9.33333 7.54667 9.04667 7.17334L9.11333 7L9.97333 4.86L9.98 4.84C10.1133 4.5 9.94667 4.11334 9.60667 3.97334C9.52 3.94 9.43333 3.92667 9.33333 3.92667ZM6.66667 4C6.48986 4 6.32029 4.07024 6.19526 4.19526C6.07024 4.32029 6 4.48986 6 4.66667C6 4.84348 6.07024 5.01305 6.19526 5.13807C6.32029 5.2631 6.48986 5.33334 6.66667 5.33334C6.84348 5.33334 7.01305 5.2631 7.13807 5.13807C7.2631 5.01305 7.33333 4.84348 7.33333 4.66667C7.33333 4.48986 7.2631 4.32029 7.13807 4.19526C7.01305 4.07024 6.84348 4 6.66667 4ZM4.66667 6C4.48986 6 4.32029 6.07024 4.19526 6.19526C4.07024 6.32029 4 6.48986 4 6.66667C4 6.84348 4.07024 7.01305 4.19526 7.13807C4.32029 7.2631 4.48986 7.33334 4.66667 7.33334C4.84348 7.33334 5.01305 7.2631 5.13807 7.13807C5.2631 7.01305 5.33333 6.84348 5.33333 6.66667C5.33333 6.48986 5.2631 6.32029 5.13807 6.19526C5.01305 6.07024 4.84348 6 4.66667 6ZM11.3333 6C11.1565 6 10.987 6.07024 10.8619 6.19526C10.7369 6.32029 10.6667 6.48986 10.6667 6.66667C10.6667 6.84348 10.7369 7.01305 10.8619 7.13807C10.987 7.2631 11.1565 7.33334 11.3333 7.33334C11.5101 7.33334 11.6797 7.2631 11.8047 7.13807C11.9298 7.01305 12 6.84348 12 6.66667C12 6.48986 11.9298 6.32029 11.8047 6.19526C11.6797 6.07024 11.5101 6 11.3333 6Z" fill="#476174" fill-opacity="0.9"/>
</g>
</svg>
