<svg width="54" height="54" viewBox="0 0 54 54" fill="none" xmlns="http://www.w3.org/2000/svg">
<g id="ph:cloud-sun">
<path id="Vector" d="M32.9062 15.1875C31.4623 15.1866 30.0248 15.3803 28.6326 15.7634C28.0831 14.8667 27.4154 14.0479 26.6477 13.3291L28.6537 10.4667C28.7809 10.2851 28.871 10.0803 28.919 9.86388C28.967 9.64747 28.9719 9.42373 28.9334 9.20542C28.8949 8.98712 28.8138 8.77854 28.6947 8.59159C28.5756 8.40463 28.4208 8.24297 28.2392 8.11582C28.0576 7.98867 27.8528 7.89854 27.6364 7.85056C27.42 7.80258 27.1962 7.79769 26.9779 7.83618C26.7596 7.87467 26.5511 7.95578 26.3641 8.07488C26.1771 8.19398 26.0155 8.34873 25.8883 8.53031L23.8823 11.3906C22.2327 10.5577 20.4104 10.1242 18.5625 10.125H18.1954L17.5858 6.68883C17.5538 6.46493 17.4772 6.24975 17.3604 6.05607C17.2436 5.86239 17.089 5.69417 16.9059 5.5614C16.7228 5.42863 16.5149 5.33402 16.2945 5.2832C16.0741 5.23238 15.8458 5.22638 15.623 5.26555C15.4002 5.30473 15.1876 5.38828 14.9978 5.51125C14.808 5.63422 14.6448 5.79409 14.518 5.98137C14.3912 6.16864 14.3033 6.3795 14.2596 6.60141C14.2159 6.82331 14.2172 7.05175 14.2636 7.27312L14.8711 10.7198C12.9995 11.3389 11.3123 12.4156 9.96255 13.8523L7.08958 11.842C6.90815 11.7118 6.70265 11.6188 6.48502 11.5686C6.26739 11.5183 6.04195 11.5118 5.82177 11.5493C5.60158 11.5868 5.39105 11.6677 5.20236 11.7872C5.01367 11.9067 4.85059 12.0625 4.72256 12.2456C4.59454 12.4286 4.50413 12.6352 4.45657 12.8535C4.409 13.0717 4.40524 13.2972 4.44549 13.5169C4.48574 13.7366 4.56921 13.9461 4.69105 14.1333C4.8129 14.3205 4.97069 14.4817 5.15528 14.6074L8.0156 16.6155C7.17974 18.2648 6.74604 20.0885 6.74997 21.9375V22.3003L3.3138 22.9078C2.89789 22.9807 2.5244 23.2068 2.26707 23.5416C2.00974 23.8764 1.88726 24.2954 1.92382 24.7161C1.96038 25.1368 2.15331 25.5284 2.46453 25.8138C2.77575 26.0992 3.18265 26.2575 3.60489 26.2575C3.70317 26.2574 3.80125 26.2489 3.8981 26.2322L7.3406 25.6247C7.64306 26.5456 8.05824 27.4255 8.57669 28.2445C6.96258 29.7438 5.83731 31.6944 5.34745 33.8422C4.85758 35.99 5.02581 38.2356 5.83022 40.2865C6.63464 42.3373 8.03796 44.0985 9.85744 45.3405C11.6769 46.5825 13.8282 47.2479 16.0312 47.25H32.9062C37.158 47.25 41.2356 45.561 44.242 42.5546C47.2485 39.5481 48.9375 35.4705 48.9375 31.2188C48.9375 26.967 47.2485 22.8894 44.242 19.8829C41.2356 16.8765 37.158 15.1875 32.9062 15.1875ZM10.125 21.9375C10.126 20.1506 10.6943 18.4101 11.748 16.9669C12.8017 15.5237 14.2864 14.4523 15.9882 13.9071C17.6899 13.3619 19.5208 13.371 21.217 13.9332C22.9132 14.4954 24.3872 15.5816 25.4264 17.0353C21.9841 18.8468 19.3148 21.8444 17.9128 25.4728C15.6944 25.0899 13.412 25.3969 11.3737 26.3524C10.5577 25.0244 10.1254 23.4962 10.125 21.9375ZM32.9062 43.875H16.0312C14.9926 43.8731 13.9654 43.6581 13.0132 43.2435C12.061 42.8288 11.2039 42.2232 10.4951 41.4641C9.78623 40.705 9.24063 39.8085 8.89201 38.8302C8.54339 37.8518 8.39917 36.8124 8.46827 35.7761C8.53736 34.7398 8.81831 33.7286 9.29373 32.8052C9.76915 31.8818 10.4289 31.0658 11.2323 30.4075C12.0357 29.7492 12.9655 29.2628 13.9644 28.9782C14.9632 28.6936 16.0098 28.6169 17.0395 28.7529C16.9615 29.2528 16.9066 29.7633 16.8771 30.278C16.8643 30.4996 16.8954 30.7215 16.9684 30.9311C17.0414 31.1407 17.155 31.3339 17.3027 31.4996C17.4504 31.6653 17.6293 31.8003 17.8292 31.8969C18.029 31.9935 18.2459 32.0498 18.4676 32.0625C18.6892 32.0752 18.9111 32.0442 19.1207 31.9712C19.3303 31.8981 19.5235 31.7845 19.6892 31.6369C19.8549 31.4892 19.9899 31.3103 20.0865 31.1104C20.1831 30.9106 20.2393 30.6936 20.2521 30.472C20.2994 29.6303 20.4323 28.7956 20.6486 27.9809C20.6486 27.9471 20.6676 27.9134 20.674 27.8796C21.2942 25.6003 22.5393 23.5398 24.2687 21.9308C25.9982 20.3218 28.143 19.2283 30.4611 18.7738C32.7791 18.3194 35.178 18.5221 37.387 19.359C39.5959 20.1959 41.5269 21.6338 42.9618 23.5102C44.3968 25.3866 45.2785 27.6268 45.5076 29.9778C45.7366 32.3289 45.3037 34.6971 44.2579 36.8151C43.2121 38.9332 41.5949 40.7167 39.589 41.9642C37.5831 43.2117 35.2684 43.8735 32.9062 43.875Z" fill="white"/>
</g>
</svg>
