<svg width="16" height="16" viewBox="0 0 16 16" fill="none" xmlns="http://www.w3.org/2000/svg">
<g id="solar:wind-bold-duotone">
<g id="Group">
<path id="Vector" fill-rule="evenodd" clip-rule="evenodd" d="M4.16667 3.66667C4.16667 3.23814 4.29374 2.81924 4.53182 2.46293C4.76989 2.10663 5.10828 1.82892 5.50419 1.66493C5.90009 1.50094 6.33574 1.45803 6.75603 1.54163C7.17632 1.62523 7.56238 1.83159 7.8654 2.1346C8.16841 2.43762 8.37477 2.82368 8.45837 3.24397C8.54197 3.66426 8.49906 4.09991 8.33507 4.49582C8.17108 4.89172 7.89338 5.23011 7.53707 5.46819C7.18076 5.70626 6.76186 5.83333 6.33333 5.83333H2C1.86739 5.83333 1.74021 5.78066 1.64645 5.68689C1.55268 5.59312 1.5 5.46594 1.5 5.33333C1.5 5.20073 1.55268 5.07355 1.64645 4.97978C1.74021 4.88601 1.86739 4.83333 2 4.83333H6.33333C6.56408 4.83333 6.78964 4.76491 6.9815 4.63672C7.17336 4.50852 7.32289 4.32631 7.41119 4.11313C7.4995 3.89995 7.5226 3.66537 7.47758 3.43906C7.43257 3.21275 7.32145 3.00487 7.15829 2.84171C6.99513 2.67855 6.78725 2.56743 6.56094 2.52242C6.33463 2.4774 6.10005 2.50051 5.88687 2.58881C5.67369 2.67711 5.49148 2.82664 5.36329 3.0185C5.23509 3.21036 5.16667 3.43592 5.16667 3.66667V3.90467C5.16667 4.03728 5.11399 4.16445 5.02022 4.25822C4.92645 4.35199 4.79927 4.40467 4.66667 4.40467C4.53406 4.40467 4.40688 4.35199 4.31311 4.25822C4.21935 4.16445 4.16667 4.03728 4.16667 3.90467V3.66667Z" fill="black"/>
<path id="Vector_2" opacity="0.4" d="M2.16666 9.33334C2.16666 9.20073 2.21933 9.07355 2.3131 8.97978C2.40687 8.88601 2.53405 8.83334 2.66666 8.83334H12.3333C12.8937 8.83334 13.4415 8.99951 13.9074 9.31084C14.3734 9.62217 14.7365 10.0647 14.951 10.5824C15.1654 11.1001 15.2215 11.6698 15.1122 12.2194C15.0029 12.769 14.733 13.2739 14.3368 13.6701C13.9405 14.0664 13.4357 14.3362 12.8861 14.4456C12.3365 14.5549 11.7668 14.4988 11.2491 14.2843C10.7313 14.0699 10.2888 13.7067 9.97749 13.2408C9.66616 12.7748 9.49999 12.227 9.49999 11.6667V11.3333C9.49999 11.2007 9.55267 11.0736 9.64644 10.9798C9.7402 10.886 9.86738 10.8333 9.99999 10.8333C10.1326 10.8333 10.2598 10.886 10.3535 10.9798C10.4473 11.0736 10.5 11.2007 10.5 11.3333V11.6667C10.5 12.0293 10.6075 12.3837 10.809 12.6852C11.0104 12.9867 11.2967 13.2217 11.6317 13.3604C11.9667 13.4992 12.3354 13.5355 12.691 13.4648C13.0466 13.394 13.3733 13.2194 13.6297 12.963C13.8861 12.7066 14.0607 12.38 14.1314 12.0243C14.2022 11.6687 14.1659 11.3001 14.0271 10.9651C13.8883 10.6301 13.6534 10.3438 13.3519 10.1423C13.0504 9.94086 12.6959 9.83334 12.3333 9.83334H2.66666C2.53405 9.83334 2.40687 9.78066 2.3131 9.68689C2.21933 9.59312 2.16666 9.46594 2.16666 9.33334Z" fill="black"/>
<path id="Vector_3" opacity="0.7" d="M9.5 5C9.5 4.43962 9.66617 3.89182 9.9775 3.42588C10.2888 2.95994 10.7313 2.59679 11.2491 2.38234C11.7668 2.16789 12.3365 2.11178 12.8861 2.22111C13.4357 2.33043 13.9405 2.60028 14.3368 2.99653C14.733 3.39278 15.0029 3.89763 15.1122 4.44724C15.2215 4.99686 15.1654 5.56654 14.951 6.08427C14.7365 6.60199 14.3734 7.0445 13.9074 7.35583C13.4415 7.66716 12.8937 7.83333 12.3333 7.83333H1.33333C1.20072 7.83333 1.07354 7.78065 0.979775 7.68689C0.886007 7.59312 0.833328 7.46594 0.833328 7.33333C0.833328 7.20072 0.886007 7.07355 0.979775 6.97978C1.07354 6.88601 1.20072 6.83333 1.33333 6.83333H12.3333C12.6959 6.83333 13.0504 6.72581 13.3519 6.52436C13.6534 6.32291 13.8883 6.03658 14.0271 5.70159C14.1659 5.36659 14.2022 4.99796 14.1314 4.64233C14.0607 4.2867 13.8861 3.96003 13.6297 3.70364C13.3733 3.44724 13.0466 3.27263 12.691 3.20189C12.3354 3.13115 11.9667 3.16746 11.6317 3.30622C11.2967 3.44498 11.0104 3.67996 10.809 3.98145C10.6075 4.28294 10.5 4.6374 10.5 5V5.33333C10.5 5.46594 10.4473 5.59312 10.3535 5.68689C10.2598 5.78065 10.1326 5.83333 10 5.83333C9.86739 5.83333 9.74021 5.78065 9.64644 5.68689C9.55267 5.59312 9.5 5.46594 9.5 5.33333V5Z" fill="black"/>
</g>
</g>
</svg>
