<svg width="16" height="16" viewBox="0 0 16 16" fill="none" xmlns="http://www.w3.org/2000/svg">
<g id="solar:danger-triangle-broken">
<g id="Group">
<path id="Vector" d="M4.20667 6C5.72933 3.33333 6.64467 2 8 2C9.54 2 10.5133 3.72467 12.4587 7.174L12.7013 7.604C14.318 10.4707 15.1267 11.904 14.396 12.952C13.6653 14 11.8573 14 8.24267 14H7.75733C4.14267 14 2.33467 14 1.604 12.952C0.969999 12.0427 1.49533 10.842 2.70267 8.66667M8 5.33333V8.66667" stroke="#FF0000" stroke-width="1.5" stroke-linecap="round"/>
<path id="Vector_2" d="M8 11.3333C8.36819 11.3333 8.66667 11.0349 8.66667 10.6667C8.66667 10.2985 8.36819 10 8 10C7.63181 10 7.33333 10.2985 7.33333 10.6667C7.33333 11.0349 7.63181 11.3333 8 11.3333Z" fill="#FF0000"/>
</g>
</g>
</svg>
