<svg width="31" height="35" viewBox="0 0 31 35" fill="none" xmlns="http://www.w3.org/2000/svg">
<path id="Vector" fill-rule="evenodd" clip-rule="evenodd" d="M16.8763 6.15395C16.8763 5.37931 16.702 4.61531 16.3673 3.92245C16.078 3.32355 15.9081 2.6705 15.8678 2.0022L15.771 0.400024L15.6743 2.00215C15.6339 2.67045 15.464 3.32352 15.1748 3.92243C14.8401 4.61531 14.6658 5.37933 14.6658 6.15398V28.9661C14.6658 29.7407 14.8401 30.5047 15.1748 31.1977C15.464 31.7965 15.6339 32.4496 15.6743 33.1179L15.771 34.72L15.8678 33.1179C15.9081 32.4495 16.078 31.7965 16.3673 31.1976C16.702 30.5047 16.8763 29.7408 16.8763 28.9661V6.15395ZM10.8412 6.21045C11.1759 6.90331 11.3501 7.66736 11.3501 8.44199V26.6781C11.3501 27.4528 11.1759 28.2167 10.8412 28.9096C10.5519 29.5085 10.382 30.1616 10.3416 30.8299L10.2449 32.432L10.1482 30.8299C10.1078 30.1616 9.93791 29.5085 9.64862 28.9096C9.31387 28.2167 9.13966 27.4528 9.13966 26.6781V8.44199C9.13966 7.66736 9.31387 6.90331 9.64862 6.21045C9.93791 5.61154 10.1078 4.95849 10.1482 4.29018L10.2449 2.68803L10.3416 4.29018C10.382 4.95849 10.5519 5.61154 10.8412 6.21045ZM8.58705 10.73C8.58705 9.95528 8.41284 9.19131 8.07809 8.49847C7.7888 7.89952 7.61892 7.24647 7.57857 6.57817L7.48182 4.97602L7.38508 6.57817C7.34473 7.24647 7.17484 7.89952 6.88553 8.49847C6.55084 9.19131 6.3766 9.95528 6.3766 10.73V24.3901C6.3766 25.1647 6.55084 25.9287 6.88553 26.6216C7.17484 27.2205 7.34473 27.8735 7.38508 28.5419L7.48182 30.144L7.57857 28.5419C7.61892 27.8735 7.7888 27.2205 8.07809 26.6216C8.41284 25.9287 8.58705 25.1647 8.58705 24.3901V10.73ZM5.31505 13.0744C5.64974 13.7673 5.82398 14.5313 5.82398 15.306V19.8141C5.82398 20.5887 5.64974 21.3527 5.31505 22.0456C5.02574 22.6445 4.85585 23.2975 4.8155 23.9659L4.71876 25.568L4.62202 23.9659C4.58166 23.2975 4.41177 22.6445 4.12247 22.0456C3.78778 21.3527 3.61353 20.5887 3.61353 19.8141V15.306C3.61353 14.5313 3.78778 13.7673 4.12247 13.0744C4.41177 12.4755 4.58166 11.8224 4.62202 11.1542L4.71876 9.55202L4.8155 11.1542C4.85585 11.8224 5.02574 12.4755 5.31505 13.0744ZM3.06081 17.56L3.06092 17.594V17.5261L3.06081 17.56ZM0.850464 17.594L0.850575 17.56C0.855589 18.3231 1.0296 19.0749 1.3594 19.7576C1.64871 20.3565 1.81859 21.0095 1.85895 21.6779L1.95569 23.28L2.05243 21.6779C2.09279 21.0095 2.26267 20.3565 2.55198 19.7576C2.88178 19.0749 3.05579 18.3231 3.06081 17.56C3.05579 16.797 2.88178 16.0452 2.55198 15.3625C2.26267 14.7635 2.09279 14.1105 2.05243 13.4422L1.95569 11.84L1.85895 13.4422C1.81859 14.1105 1.64871 14.7635 1.3594 15.3625C1.0296 16.0452 0.855589 16.797 0.850575 17.56L0.850464 17.5261V17.594ZM13.6042 3.92244C13.939 4.61531 14.1132 5.37932 14.1132 6.15397V28.9661C14.1132 29.7408 13.939 30.5047 13.6042 31.1976C13.3149 31.7965 13.1451 32.4495 13.1047 33.1179L13.008 34.72L12.9113 33.1179C12.8708 32.4495 12.701 31.7965 12.4117 31.1976C12.0769 30.5047 11.9027 29.7408 11.9027 28.9661V6.15397C11.9027 5.37932 12.0769 4.61531 12.4117 3.92244C12.701 3.32353 12.8708 2.67047 12.9113 2.00217L13.008 0.400024L13.1047 2.00217C13.1451 2.67047 13.3149 3.32353 13.6042 3.92244ZM19.1304 3.92244C19.4651 4.61531 19.6393 5.37932 19.6393 6.15397V28.9661C19.6393 29.7408 19.4651 30.5047 19.1304 31.1976C18.8411 31.7965 18.6712 32.4495 18.6308 33.1179L18.5341 34.72L18.4374 33.1179C18.397 32.4495 18.2271 31.7965 17.9378 31.1976C17.6031 30.5047 17.4289 29.7408 17.4289 28.9661V6.15397C17.4289 5.37932 17.6031 4.61531 17.9378 3.92244C18.2271 3.32353 18.397 2.67047 18.4374 2.00217L18.5341 0.400024L18.6308 2.00217C18.6712 2.67047 18.8411 3.32353 19.1304 3.92244ZM22.4024 8.44199C22.4024 7.66736 22.2282 6.90331 21.8934 6.21045C21.6041 5.61154 21.4343 4.95849 21.3939 4.29018L21.2972 2.68803L21.2004 4.29018C21.16 4.95849 20.9902 5.61154 20.7009 6.21045C20.3661 6.90331 20.1919 7.66736 20.1919 8.44199V26.6781C20.1919 27.4528 20.3661 28.2167 20.7009 28.9096C20.9902 29.5085 21.16 30.1616 21.2004 30.8299L21.2972 32.432L21.3939 30.8299C21.4343 30.1616 21.6041 29.5085 21.8934 28.9096C22.2282 28.2167 22.4024 27.4528 22.4024 26.6781V8.44199ZM24.6565 8.49847C24.9912 9.19131 25.1654 9.95528 25.1654 10.73V24.3901C25.1654 25.1647 24.9912 25.9287 24.6565 26.6216C24.3672 27.2205 24.1973 27.8735 24.1569 28.5419L24.0602 30.144L23.9635 28.5419C23.9231 27.8735 23.7532 27.2205 23.464 26.6216C23.1293 25.9287 22.955 25.1647 22.955 24.3901V10.73C22.955 9.95528 23.1293 9.19131 23.464 8.49847C23.7532 7.89952 23.9231 7.24647 23.9635 6.57817L24.0602 4.97602L24.1569 6.57817C24.1973 7.24647 24.3672 7.89952 24.6565 8.49847ZM27.9285 15.306C27.9285 14.5313 27.7543 13.7673 27.4196 13.0744C27.1303 12.4755 26.9604 11.8224 26.92 11.1542L26.8233 9.55202L26.7266 11.1542C26.6862 11.8224 26.5163 12.4755 26.227 13.0744C25.8923 13.7673 25.7181 14.5313 25.7181 15.306V19.8141C25.7181 20.5887 25.8923 21.3527 26.227 22.0456C26.5163 22.6445 26.6862 23.2975 26.7266 23.9659L26.8233 25.568L26.92 23.9659C26.9604 23.2975 27.1303 22.6445 27.4196 22.0456C27.7543 21.3527 27.9285 20.5887 27.9285 19.8141V15.306ZM30.6914 17.56C30.6915 17.5713 30.6916 17.5826 30.6916 17.594V17.5261C30.6916 17.5374 30.6915 17.5487 30.6914 17.56ZM28.4813 17.56C28.4862 18.3231 28.6602 19.0749 28.9901 19.7576C29.2794 20.3565 29.4492 21.0095 29.4897 21.6779L29.5864 23.28L29.6831 21.6779C29.7235 21.0095 29.8933 20.3565 30.1826 19.7576C30.5125 19.0749 30.6865 18.3231 30.6914 17.56C30.6865 16.797 30.5125 16.0452 30.1826 15.3625C29.8933 14.7635 29.7235 14.1105 29.6831 13.4422L29.5864 11.84L29.4897 13.4422C29.4492 14.1105 29.2794 14.7635 28.9901 15.3625C28.6602 16.0452 28.4862 16.797 28.4813 17.56ZM28.4813 17.56C28.4812 17.5487 28.4811 17.5374 28.4811 17.5261V17.594C28.4811 17.5826 28.4812 17.5713 28.4813 17.56Z" fill="#B43636"/>
</svg>
