<svg width="14" height="14" viewBox="0 0 14 14" fill="none" xmlns="http://www.w3.org/2000/svg">
<path id="Vector" d="M9.04868 0.333344H4.95801C1.22201 0.333344 0.333344 1.22201 0.333344 4.95134V9.04201C0.333344 12.7773 1.21534 13.6667 4.95134 13.6667H9.04201C12.7773 13.6667 13.6667 12.7847 13.6667 9.04868V4.95801C13.6667 1.22201 12.7847 0.333344 9.04868 0.333344ZM11.0973 9.84668H10.1247C9.75668 9.84668 9.64601 9.54868 8.98601 8.88868C8.41001 8.33334 8.16668 8.26401 8.02068 8.26401C7.81934 8.26401 7.76401 8.31934 7.76401 8.59734V9.47201C7.76401 9.70868 7.68734 9.84734 7.06934 9.84734C6.46957 9.80704 5.88796 9.62482 5.37241 9.3157C4.85686 9.00658 4.42212 8.5794 4.10401 8.06934C3.34879 7.12934 2.8233 6.0261 2.56934 4.84734C2.56934 4.70134 2.62468 4.56934 2.90268 4.56934H3.87468C4.12468 4.56934 4.21468 4.68068 4.31268 4.93734C4.78468 6.32668 5.59001 7.53468 5.91668 7.53468C6.04201 7.53468 6.09668 7.47934 6.09668 7.16668V5.73601C6.05534 5.08334 5.70868 5.02801 5.70868 4.79201C5.71313 4.72976 5.74166 4.6717 5.7882 4.63013C5.83475 4.58856 5.89566 4.56676 5.95801 4.56934H7.48601C7.69468 4.56934 7.76401 4.67334 7.76401 4.92334V6.85401C7.76401 7.06268 7.85401 7.13201 7.91668 7.13201C8.04201 7.13201 8.13868 7.06268 8.36801 6.83334C8.86059 6.23264 9.26303 5.5634 9.56268 4.84668C9.59331 4.76059 9.65126 4.68688 9.7277 4.63681C9.80413 4.58673 9.89485 4.56304 9.98601 4.56934H10.9587C11.25 4.56934 11.312 4.71534 11.25 4.92334C10.8963 5.71563 10.4587 6.46771 9.94468 7.16668C9.84001 7.32668 9.79801 7.41001 9.94468 7.59734C10.0413 7.74334 10.382 8.02801 10.6113 8.29868C10.9446 8.63111 11.2214 9.01572 11.4307 9.43734C11.514 9.70801 11.3747 9.84668 11.0973 9.84668Z" fill="#3D0DFF"/>
</svg>
